<?xml version="1.0" encoding="utf-8"?>
<!-- Generator: Adobe Illustrator 18.0.0, SVG Export Plug-In . SVG Version: 6.00 Build 0)  -->
<!DOCTYPE svg PUBLIC "-//W3C//DTD SVG 1.1//EN" "http://www.w3.org/Graphics/SVG/1.1/DTD/svg11.dtd">
<svg version="1.1" id="Layer_1" xmlns="http://www.w3.org/2000/svg" xmlns:xlink="http://www.w3.org/1999/xlink" x="0px" y="0px"
	 viewBox="0 0 256 256" enable-background="new 0 0 256 256" xml:space="preserve">
<g>
	<path fill="#8AB7C4" d="M250.2,93.7c-9.2-32.7-30.5-59.8-60-76.4C174.3,8.4,157.1,3,139.1,1.5C89.5-2.8,41.7,22.4,17.3,65.8
		C0.7,95.3-3.4,129.6,5.8,162.3c9.2,32.7,30.5,59.8,60,76.4c15.9,8.9,33.1,14.3,51.1,15.8c49.6,4.3,97.4-20.9,121.7-64.3
		C255.3,160.7,259.4,126.4,250.2,93.7z"/>
	<path fill="#8AB7C4" d="M56.2,56.4c18.1-18.1,42.6-28.9,68.5-29.8c0,0-0.1,0-0.1,0c4.6,1.2,1.4,4.2-1.5,5.7
		c-7.9,4.2-10.8,7.8-10.8,7.8c-7.6,8.8-14,21-12.8,38.4c1,14.6,9.9,24.9,14.2,29.2c-3.5,2.5-6.4,5.9-8.3,9.9
		c-2.1,1.6-5.1,2.4-5.1,2.4c-32.2,7.2-47.9-10.4-52.7-30.7C44.3,74.7,51.8,62.2,56.2,56.4z"/>
	<path fill="#8AB7C4" d="M38.8,176.3C38.9,176.3,38.9,176.4,38.8,176.3c-0.9-4.6,3.2-3,5.9-1.1c7.3,5.2,11.8,6.2,11.8,6.2
		c11.2,2.8,25.1,3.1,40.1-5.8c12.6-7.5,17.8-20,19.8-25.8c0.5,0.3,1,0.5,1.5,0.8c3.2,1.5,6.7,2.2,10.2,2.2c0.8,0,1.7,0,2.5-0.1
		c2.4,1,4.7,3.2,4.7,3.2c22.5,24.1,15.4,46.5,0.3,61c-11,10.6-25.8,10.3-33.1,9.4c-8.4-2.2-16.4-5.4-24.1-9.8
		C61.4,206.9,47.8,193,38.8,176.3z"/>
	<path fill="#8AB7C4" d="M219.5,171.6L219.5,171.6c-3.2,3.5-4.3-0.7-4.4-4c-0.1-9-1.9-13.2-1.9-13.2c-4.3-10.8-12.2-22.1-28.3-29
		c-13.5-5.8-26.7-2.6-32.5-0.8c-0.2-1.8-0.7-3.6-1.4-5.4c-0.7-1.7-1.5-3.4-2.5-4.9c-0.2-2.6,0.7-5.6,0.7-5.6
		c10.9-31.1,34.1-35.2,53.9-28.5c14.3,4.8,21,17.9,23.5,24.8C232,127.6,229.5,150.8,219.5,171.6z"/>
	<path fill="#8AB7C4" d="M214.9,75.7c-0.1-0.1-0.1-0.1-0.1-0.1c1.2,4.6-3,3.2-5.7,1.5c-7.5-4.9-12-5.6-12-5.6
		c-11.4-2.3-25.2-2-39.8,7.6c-12.3,8-16.9,20.8-18.6,26.7c-0.2-0.1-0.4-0.2-0.5-0.3c-3.2-1.5-6.7-2.2-10.2-2.2c-0.6,0-1.2,0-1.8,0.1
		c-2.4-1.1-4.6-3.3-4.6-3.3c-21.8-24.7-14-46.9,1.5-61c11.3-10.3,26.1-9.5,33.3-8.4c7.3,2.2,14.4,5.1,21.2,9
		C193.3,48.4,206,60.8,214.9,75.7z"/>
	<path fill="#8AB7C4" d="M155.8,135.2c32-8,48.1,9.1,53.5,29.3c3.9,14.5-3.3,27.2-7.6,33.2c-17.6,18.5-41.7,29.9-67.4,31.5
		c0,0,0,0,0,0c-4.6-1.1-1.5-4.1,1.3-5.7c7.8-4.4,10.6-8.1,10.6-8.1c7.3-9,13.4-21.4,11.6-38.8c-1.5-14.6-10.6-24.6-15-28.8
		c3.3-2.4,6-5.7,7.7-9.6c0.1-0.1,0.1-0.3,0.2-0.4C152.7,136.1,155.8,135.2,155.8,135.2z"/>
	<path fill="#8AB7C4" d="M37.7,82c3.3-3.4,4.3,0.8,4.3,4.1c-0.1,9,1.6,13.2,1.6,13.2c4,10.9,11.7,22.4,27.5,29.7
		c13.3,6.2,26.6,3.3,32.4,1.7c0.2,2,0.7,4.1,1.4,6c0.5,1.4,1.2,2.7,1.9,3.9c0.1,2.6-0.9,5.6-0.9,5.6c-12.3,30.6-35.7,33.6-55.2,26
		c-14.1-5.5-20.1-18.8-22.4-25.8C24.2,124.4,27.4,102,37.7,82z"/>
	<g>
		<path fill="#FFFFFF" stroke="#FFFFFF" stroke-width="0.3615" stroke-miterlimit="10" d="M234.9,98c-8-28.6-26.7-52.3-52.5-66.8
			c-13.9-7.8-29-12.5-44.7-13.9C94.3,13.5,52.5,35.6,31.2,73.6C16.7,99.4,13.1,129.4,21.1,158c8,28.6,26.7,52.3,52.5,66.8
			c13.9,7.8,29,12.5,44.7,13.9c43.4,3.8,85.2-18.3,106.5-56.3C239.3,156.6,242.9,126.6,234.9,98z M156.4,30.6
			c7.3,2.2,14.4,5.1,21.2,9c15.6,8.8,28.3,21.2,37.3,36.1c-0.1-0.1-0.1-0.1-0.1-0.1c1.2,4.6-3,3.2-5.7,1.5c-7.5-4.9-12-5.6-12-5.6
			c-11.4-2.3-25.2-2-39.8,7.6c-12.3,8-16.9,20.8-18.6,26.7c-0.2-0.1-0.4-0.2-0.5-0.3c-3.2-1.5-6.7-2.2-10.2-2.2
			c-0.6,0-1.2,0-1.8,0.1c-2.4-1.1-4.6-3.3-4.6-3.3c-21.8-24.7-14-46.9,1.5-61C134.4,28.8,149.2,29.5,156.4,30.6z M146.7,120.9
			c1.9,5,1.7,10.4-0.5,15.3C143,143.4,135.8,148,128,148c-2.8,0-5.6-0.6-8.2-1.8c-4.9-2.2-8.6-6.2-10.5-11.2
			c-1.9-5-1.7-10.4,0.5-15.3c3.2-7.1,10.4-11.8,18.2-11.8c2.8,0,5.6,0.6,8.2,1.8C141.1,112,144.8,115.9,146.7,120.9z M56.2,56.4
			c18.1-18.1,42.6-28.9,68.5-29.8c0,0-0.1,0-0.1,0c4.6,1.2,1.4,4.2-1.5,5.7c-7.9,4.2-10.8,7.8-10.8,7.8c-7.6,8.8-14,21-12.8,38.4
			c1,14.6,9.9,24.9,14.2,29.2c-3.5,2.5-6.4,5.9-8.3,9.9c-2.1,1.6-5.1,2.4-5.1,2.4c-32.2,7.2-47.9-10.4-52.7-30.7
			C44.3,74.7,51.8,62.2,56.2,56.4z M37.7,82c3.3-3.4,4.3,0.8,4.3,4.1c-0.1,9,1.6,13.2,1.6,13.2c4,10.9,11.7,22.4,27.5,29.7
			c13.3,6.2,26.6,3.3,32.4,1.7c0.2,2,0.7,4.1,1.4,6c0.5,1.4,1.2,2.7,1.9,3.9c0.1,2.6-0.9,5.6-0.9,5.6c-12.3,30.6-35.7,33.6-55.2,26
			c-14.1-5.5-20.1-18.8-22.4-25.8C24.2,124.4,27.4,102,37.7,82z M102.4,226.2c-8.4-2.2-16.4-5.4-24.1-9.8
			c-17-9.5-30.5-23.4-39.5-40.1c0.1,0.1,0.1,0.1,0.1,0.1c-1-4.7,3.1-3.1,5.8-1.2c7.3,5.2,11.8,6.2,11.8,6.2
			c11.2,2.8,25.1,3.1,40.1-5.8c12.6-7.5,17.8-20,19.8-25.8c0.5,0.3,1,0.5,1.5,0.8c3.2,1.5,6.7,2.2,10.2,2.2c0.8,0,1.7,0,2.5-0.1
			c2.4,1,4.7,3.2,4.7,3.2c22.5,24.1,15.4,46.5,0.3,61C124.5,227.4,109.7,227.1,102.4,226.2z M201.6,197.7
			c-17.6,18.5-41.7,29.9-67.4,31.5c0,0,0,0,0,0c-4.6-1.1-1.5-4.1,1.3-5.7c7.8-4.4,10.6-8.1,10.6-8.1c7.3-9,13.4-21.4,11.6-38.8
			c-1.5-14.6-10.6-24.6-15-28.8c3.3-2.4,6-5.7,7.7-9.6c0.1-0.1,0.1-0.3,0.2-0.4c2-1.6,5.1-2.6,5.1-2.6c32-8,48.1,9.1,53.5,29.3
			C213.1,179.1,205.9,191.7,201.6,197.7z M219.5,171.6L219.5,171.6c-3.2,3.5-4.3-0.7-4.4-4c-0.1-9-1.9-13.2-1.9-13.2
			c-4.3-10.8-12.2-22.1-28.3-29c-13.5-5.8-26.7-2.6-32.5-0.8c-0.2-1.8-0.7-3.6-1.4-5.4c-0.7-1.7-1.5-3.4-2.5-4.9
			c-0.2-2.6,0.7-5.6,0.7-5.6c10.9-31.1,34.1-35.2,53.9-28.5c14.3,4.8,21,17.9,23.5,24.8C232,127.6,229.5,150.8,219.5,171.6z"/>
	</g>
	<path fill="#FFFFFF" d="M128,139c4.3,0,8.3-2.5,10.1-6.5c1.2-2.7,1.3-5.7,0.3-8.4c-1-2.8-3.1-5-5.8-6.2c-1.4-0.7-3-1-4.5-1
		c-4.3,0-8.3,2.5-10.1,6.5c-1.2,2.7-1.3,5.7-0.3,8.4c1,2.8,3.1,5,5.8,6.2C124.9,138.7,126.4,139,128,139z M120.9,130.7
		c-0.7-1.9-0.6-4,0.2-5.8c1.2-2.7,3.9-4.5,6.9-4.5c1.1,0,2.1,0.2,3.1,0.7c1.8,0.8,3.3,2.3,4,4.2c0.7,1.9,0.6,4-0.2,5.8
		c-1.2,2.7-3.9,4.5-6.9,4.5c-1.1,0-2.1-0.2-3.1-0.7C123,134.1,121.6,132.6,120.9,130.7z"/>
</g>
</svg>
